<svg viewBox="0 0 16 16" fill="currentColor" xmlns="http://www.w3.org/2000/svg">
  <path d="M8 .198a8 8 0 00-2.53 15.59c.4.074.546-.174.546-.386 0-.19-.007-.693-.01-1.36-2.226.484-2.695-1.074-2.695-1.074-.364-.923-.89-1.17-.89-1.17-.727-.497.055-.487.055-.487.803.056 1.225.824 1.225.824.715 1.223 1.876.87 2.334.665.072-.517.279-.87.507-1.07-1.777-.202-3.644-.888-3.644-3.952 0-.873.312-1.587.824-2.148-.083-.203-.357-1.016.078-2.12 0 0 .672-.215 2.2.82a7.64 7.64 0 012.004-.27c.68.003 1.366.092 2.004.27 1.529-1.035 2.2-.82 2.2-.82.435 1.104.16 1.918.078 2.12.513.56.823 1.275.823 2.148 0 3.073-1.87 3.747-3.652 3.945.287.247.543.735.543 1.48 0 1.068-.01 1.93-.01 2.193 0 .214.144.463.55.385A8 8 0 008 .197z"/>
</svg>